# xmcd
#
# Track frame offsets: 
#        150
#        9291
#        17433
#        30361
#        44584
#        60029
#        70738
#        78408
#        87729
#        99916
#        110607
#        120812
#        130736
#        147938
#        156181
#        166322
#        178731
#        190528
#        214443
#
# Disc length: 3009 seconds
#
# Revision: 0
# Processed by: cddbd v1.5.1PL0 Copyright (c) Steve Scherf et al.
# Submitted via: ExactAudioCopy v0.95a5
#
DISCID=ea0bbf13
DTITLE=Sons of Jim Wayne - Sweet Madonna
DYEAR=2002
DGENRE=New Country
TTITLE0=Angry Man
TTITLE1=Sleet&Snow
TTITLE2=Ghost of War
TTITLE3=Raging Killa
TTITLE4=Born Dead Man
TTITLE5=Gospel
TTITLE6=60 Miles
TTITLE7=Pete The Robber
TTITLE8=Elephant Street
TTITLE9=Flatline
TTITLE10=Be My Lover
TTITLE11=Over Me
TTITLE12=You were gone
TTITLE13=Swet Madonna
TTITLE14=A-Mission (live at BDP-Cafe)
TTITLE15=Rain wont come
TTITLE16=Coming Home
TTITLE17=Some Nights
TTITLE18=Goodbye
EXTD=
EXTT0=
EXTT1=
EXTT2=
EXTT3=
EXTT4=
EXTT5=
EXTT6=
EXTT7=
EXTT8=
EXTT9=
EXTT10=
EXTT11=
EXTT12=
EXTT13=
EXTT14=
EXTT15=
EXTT16=
EXTT17=
EXTT18=
PLAYORDER=
